<svg viewBox="0 0 19.9767 16" fill="none" xmlns="http://www.w3.org/2000/svg" x="0" y="0"><path id="Icon_4" d="M8.45,11.5c0.4167,0.417 0.9417,0.612 1.575,0.587c0.6333,-0.025 1.0917,-0.254 1.375,-0.687l5.6,-8.4l-8.4,5.6c-0.4333,0.3 -0.6708,0.754 -0.7125,1.362c-0.0417,0.609 0.1458,1.121 0.5625,1.538zM3.1,16c-0.3667,0 -0.7042,-0.079 -1.0125,-0.238c-0.3083,-0.158 -0.5542,-0.395 -0.7375,-0.712c-0.4333,-0.783 -0.7667,-1.596 -1,-2.437c-0.2333,-0.842 -0.35,-1.713 -0.35,-2.613c0,-1.383 0.2625,-2.683 0.7875,-3.9c0.525,-1.217 1.2375,-2.275 2.1375,-3.175c0.9,-0.9 1.9583,-1.613 3.175,-2.137c1.2167,-0.525 2.5167,-0.788 3.9,-0.788c1.3667,0 2.65,0.258 3.85,0.775c1.2,0.517 2.25,1.221 3.15,2.113c0.9002,0.891 1.6162,1.933 2.1502,3.124c0.533,1.192 0.808,2.471 0.825,3.838c0.016,0.917 -0.088,1.813 -0.313,2.688c-0.225,0.875 -0.571,1.712 -1.037,2.512c-0.184,0.317 -0.429,0.554 -0.738,0.712c-0.308,0.159 -0.6455,0.238 -1.0122,0.238z" fill="currentColor"/></svg>