<svg viewBox="0 0 40 40" fill="none" xmlns="http://www.w3.org/2000/svg" x="0" y="0"><defs><mask id="mask0_1_1253" style="mask-type:alpha" maskUnits="userSpaceOnUse" x="0" y="0" width="40" height="40">
<g id="SVG">
<path id="Vector" d="M10,0h30v30l-10,10h-30v-30z" fill="black"/>
</g>
</mask><filter id="filter1_d_1_1253" x="-10" y="-10" width="60" height="60" filterUnits="userSpaceOnUse" color-interpolation-filters="sRGB">
<feFlood flood-opacity="0" result="BackgroundImageFix"/>
<feColorMatrix in="SourceAlpha" type="matrix" values="0 0 0 0 0 0 0 0 0 0 0 0 0 0 0 0 0 0 127 0" result="hardAlpha"/>
<feOffset/>
<feGaussianBlur stdDeviation="5"/>
<feComposite in2="hardAlpha" operator="out"/>
<feColorMatrix type="matrix" values="0 0 0 0 0.231373 0 0 0 0 0.364706 0 0 0 0 0.909804 0 0 0 0.3 0"/>
<feBlend mode="normal" in2="BackgroundImageFix" result="effect1_dropShadow_1_1253"/>
<feBlend mode="normal" in="SourceGraphic" in2="effect1_dropShadow_1_1253" result="shape"/>
</filter></defs><g id="Mask Group">
<mask id="mask0_1_1253" style="mask-type:alpha" maskUnits="userSpaceOnUse" x="59" y="33" width="40" height="40">
<g id="SVG">
<path id="Vector" d="M69 33H99V63L89 73H59V43L69 33Z" fill="black"/>
</g>
</mask>
<g mask="url(#mask0_1_1253)">
<g id="Background+Shadow" filter="url(#filter1_d_1_1253)">
<rect width="40" height="40" transform="translate(0, 0)" fill="#3B5DE8"/>
<g id="Container_3">
<path id="Icon" d="M22,26c1.6667,0 3.0833,-0.5833 4.25,-1.75c1.1667,-1.1667 1.75,-2.5833 1.75,-4.25c0,-1.6833 -0.6125,-3.1042 -1.8375,-4.2625c-1.225,-1.1583 -2.6958,-1.7375 -4.4125,-1.7375c-0.8,0 -1.575,0.0917 -2.325,0.275c-0.75,0.1833 -1.475,0.4583 -2.175,0.825l2.5,1c0.6833,0.2833 1.2292,0.7208 1.6375,1.3125c0.4083,0.5917 0.6125,1.2542 0.6125,1.9875c0,1 -0.3458,1.85 -1.0375,2.55c-0.6917,0.7 -1.5292,1.05 -2.5125,1.05h-6.4c-0.0333,0.4 -0.05,0.8542 -0.05,1.3625c0,0.5083 0,1.0542 0,1.6375zM12.4,21h6c0.45,0 0.8292,-0.1542 1.1375,-0.4625c0.3083,-0.3083 0.4625,-0.6875 0.4625,-1.1375c0,-0.3167 -0.0875,-0.6042 -0.2625,-0.8625c-0.175,-0.2583 -0.4208,-0.4542 -0.7375,-0.5875l-3.7,-1.5c-0.7,0.6167 -1.2958,1.3167 -1.7875,2.1c-0.4917,0.7833 -0.8625,1.6 -1.1125,2.45zM22,28h-10c-0.55,0 -1.0208,-0.1958 -1.4125,-0.5875c-0.3917,-0.3917 -0.5875,-0.8625 -0.5875,-1.4125v-2.25c0,-1.6333 0.3083,-3.1625 0.925,-4.5875c0.6167,-1.425 1.4542,-2.6667 2.5125,-3.725c1.0583,-1.0583 2.3042,-1.8958 3.7375,-2.5125c1.4333,-0.6167 2.9583,-0.925 4.575,-0.925c1.1333,0 2.2,0.2083 3.2,0.625c1,0.4167 1.875,0.9875 2.625,1.7125c0.75,0.725 1.3417,1.5708 1.775,2.5375c0.4333,0.9667 0.65,2.0083 0.65,3.125c0,1.1 -0.2083,2.1375 -0.625,3.1125c-0.4167,0.975 -0.9875,1.825 -1.7125,2.55c-0.725,0.725 -1.575,1.2958 -2.55,1.7125c-0.975,0.4167 -2.0125,0.625 -3.1125,0.625z" fill="white"/>
</g>
</g>
</g>
</g></svg>