<svg viewBox="0 0 20 20" fill="none" xmlns="http://www.w3.org/2000/svg" x="0" y="0"><path id="Icon_7" d="M1.9998,20c-0.55,0 -1.021,-0.196 -1.412,-0.587c-0.392,-0.392 -0.588,-0.863 -0.588,-1.413v-16c0,-0.55 0.196,-1.021 0.588,-1.413c0.391,-0.391 0.862,-0.587 1.412,-0.587h16c0.55,0 1.021,0.196 1.413,0.587c0.391,0.392 0.587,0.863 0.587,1.413v16c0,0.55 -0.196,1.021 -0.587,1.413c-0.392,0.391 -0.863,0.587 -1.413,0.587zM1.9998,18h16v-16h-16zM6.9998,12c-0.283,0 -0.521,-0.096 -0.712,-0.288c-0.192,-0.191 -0.288,-0.429 -0.288,-0.712c0,-0.283 0.096,-0.521 0.288,-0.712c0.191,-0.192 0.429,-0.288 0.712,-0.288c0.283,0 0.521,0.096 0.713,0.288c0.191,0.191 0.287,0.429 0.287,0.712c0,0.283 -0.096,0.521 -0.287,0.712c-0.192,0.192 -0.43,0.288 -0.713,0.288zM12.9998,12c-0.283,0 -0.521,-0.096 -0.712,-0.288c-0.192,-0.191 -0.288,-0.429 -0.288,-0.712c0,-0.283 0.096,-0.521 0.288,-0.712c0.191,-0.192 0.429,-0.288 0.712,-0.288c0.283,0 0.521,0.096 0.713,0.288c0.191,0.191 0.287,0.429 0.287,0.712c0,0.283 -0.096,0.521 -0.287,0.712c-0.192,0.192 -0.43,0.288 -0.713,0.288zM2.9998,9.1v6.6c0,0.233 0.075,0.425 0.225,0.575c0.15,0.15 0.342,0.225 0.575,0.225h0.4c0.233,0 0.425,-0.075 0.575,-0.225c0.15,-0.15 0.225,-0.342 0.225,-0.575v-1.2h10v1.2c0,0.233 0.075,0.425 0.225,0.575c0.15,0.15 0.342,0.225 0.575,0.225h0.4c0.234,0 0.425,-0.075 0.575,-0.225c0.15,-0.15 0.225,-0.342 0.225,-0.575v-6.6l-1.65,-4.8c-0.083,-0.233 -0.221,-0.425 -0.412,-0.575c-0.192,-0.15 -0.405,-0.225 -0.638,-0.225h-8.6c-0.233,0 -0.446,0.075 -0.637,0.225c-0.192,0.15 -0.33,0.342 -0.413,0.575zM5.6498,7.5l0.7,-2h7.3l0.7,2zM1.9998,2v16zM4.9998,12.5v-3h10v3z" fill="currentColor"/></svg>