<svg viewBox="0 0 12.775 12.775" fill="none" xmlns="http://www.w3.org/2000/svg" x="0" y="0"><path id="Icon_2" d="M5.8042,12.7745v-1.166c-1.2153,-0.136 -2.258,-0.639 -3.1282,-1.51c-0.8701,-0.87 -1.3732,-1.912 -1.5093,-3.128h-1.1667v-1.166h1.1667c0.1361,-1.216 0.6392,-2.258 1.5093,-3.128c0.8702,-0.871 1.9129,-1.374 3.1282,-1.51v-1.167h1.1666v1.167c1.2153,0.136 2.258,0.639 3.1282,1.51c0.8701,0.87 1.3732,1.912 1.5093,3.128h1.1667v1.166h-1.1667c-0.1361,1.216 -0.6392,2.258 -1.5093,3.128c-0.8702,0.871 -1.9129,1.374 -3.1282,1.51v1.166zM6.3875,10.4705c1.1278,0 2.0903,-0.398 2.8875,-1.196c0.7972,-0.797 1.1958,-1.759 1.1958,-2.887c0,-1.128 -0.3986,-2.09 -1.1958,-2.888c-0.7972,-0.797 -1.7597,-1.195 -2.8875,-1.195c-1.1278,0 -2.0903,0.398 -2.8875,1.195c-0.7972,0.798 -1.1958,1.76 -1.1958,2.888c0,1.128 0.3986,2.09 1.1958,2.887c0.7972,0.798 1.7597,1.196 2.8875,1.196zM6.3875,8.7205c-0.6417,0 -1.191,-0.228 -1.6479,-0.685c-0.457,-0.457 -0.6854,-1.006 -0.6854,-1.648c0,-0.642 0.2284,-1.191 0.6854,-1.648c0.4569,-0.457 1.0062,-0.685 1.6479,-0.685c0.6417,0 1.191,0.228 1.6479,0.685c0.457,0.457 0.6854,1.006 0.6854,1.648c0,0.642 -0.2284,1.191 -0.6854,1.648c-0.4569,0.457 -1.0062,0.685 -1.6479,0.685zM6.3875,7.5545c0.3208,0 0.5955,-0.115 0.824,-0.343c0.2284,-0.229 0.3427,-0.503 0.3427,-0.824c0,-0.321 -0.1143,-0.595 -0.3427,-0.824c-0.2285,-0.228 -0.5032,-0.343 -0.824,-0.343c-0.3208,0 -0.5955,0.115 -0.824,0.343c-0.2284,0.229 -0.3427,0.503 -0.3427,0.824c0,0.321 0.1143,0.595 0.3427,0.824c0.2285,0.228 0.5032,0.343 0.824,0.343z" fill="currentColor"/></svg>