<svg viewBox="0 0 18 18" fill="none" xmlns="http://www.w3.org/2000/svg" x="0" y="0"><path id="Icon_6" d="M8.9999,18c-2.3,0 -4.304,-0.763 -6.012,-2.288c-1.709,-1.524 -2.688,-3.429 -2.938,-5.712h2.05c0.233,1.733 1.004,3.167 2.313,4.3c1.308,1.133 2.837,1.7 4.587,1.7c1.95,0 3.604,-0.679 4.963,-2.038c1.358,-1.358 2.037,-3.012 2.037,-4.962c0,-1.95 -0.679,-3.604 -2.037,-4.963c-1.359,-1.358 -3.013,-2.037 -4.963,-2.037c-1.15,0 -2.225,0.267 -3.225,0.8c-1,0.533 -1.842,1.267 -2.525,2.2h2.75v2h-6v-6h2v2.35c0.85,-1.067 1.888,-1.892 3.113,-2.475c1.225,-0.583 2.52,-0.875 3.887,-0.875c1.25,0 2.421,0.237 3.513,0.712c1.091,0.476 2.041,1.117 2.85,1.926c0.808,0.808 1.45,1.758 1.925,2.85c0.475,1.091 0.712,2.262 0.712,3.512c0,1.25 -0.237,2.421 -0.712,3.512c-0.475,1.092 -1.117,2.042 -1.925,2.851c-0.809,0.808 -1.759,1.449 -2.85,1.925c-1.092,0.475 -2.263,0.712 -3.513,0.712zM11.7999,13.2l-3.8,-3.8v-5.4h2v4.6l3.2,3.2z" fill="currentColor"/></svg>