<svg viewBox="0 0 16.5 18" fill="none" xmlns="http://www.w3.org/2000/svg" x="0" y="0"><path id="Icon_8" d="M0,18v-16c0,-0.55 0.196,-1.021 0.587,-1.413c0.392,-0.391 0.863,-0.587 1.413,-0.587h6c0.55,0 1.021,0.196 1.413,0.587c0.391,0.392 0.587,0.863 0.587,1.413v7h1c0.55,0 1.021,0.196 1.413,0.587c0.391,0.392 0.587,0.863 0.587,1.413v4.5c0,0.283 0.096,0.521 0.288,0.712c0.191,0.192 0.429,0.288 0.712,0.288c0.283,0 0.521,-0.096 0.712,-0.288c0.192,-0.191 0.288,-0.429 0.288,-0.712v-7.2c-0.15,0.083 -0.308,0.138 -0.475,0.162c-0.167,0.025 -0.342,0.038 -0.525,0.038c-0.7,0 -1.292,-0.242 -1.775,-0.725c-0.483,-0.483 -0.725,-1.075 -0.725,-1.775c0,-0.533 0.146,-1.012 0.438,-1.438c0.291,-0.425 0.679,-0.729 1.162,-0.912l-2.1,-2.1l1.05,-1.05l3.7,3.6c0.25,0.25 0.438,0.542 0.562,0.875c0.126,0.333 0.188,0.675 0.188,1.025v9.5c0,0.7 -0.242,1.292 -0.725,1.775c-0.483,0.483 -1.075,0.725 -1.775,0.725c-0.7,0 -1.292,-0.242 -1.775,-0.725c-0.483,-0.483 -0.725,-1.075 -0.725,-1.775v-5h-1.5v7.5zM2,7h6v-5h-6zM14,7c0.283,0 0.521,-0.096 0.712,-0.287c0.192,-0.192 0.288,-0.43 0.288,-0.713c0,-0.283 -0.096,-0.521 -0.288,-0.713c-0.191,-0.191 -0.429,-0.287 -0.712,-0.287c-0.283,0 -0.521,0.096 -0.712,0.287c-0.192,0.192 -0.288,0.43 -0.288,0.713c0,0.283 0.096,0.521 0.288,0.713c0.191,0.191 0.429,0.287 0.712,0.287zM2,16h6v-7h-6zM8,16h-6z" fill="currentColor"/></svg>