<svg viewBox="0 0 40 40" fill="none" xmlns="http://www.w3.org/2000/svg" x="0" y="0"><defs><mask id="mask1_1_1253" style="mask-type:alpha" maskUnits="userSpaceOnUse" x="0" y="0" width="40" height="40">
<g id="SVG_2">
<path id="Vector_2" d="M10,0h30v30l-10,10h-30v-30z" fill="black"/>
</g>
</mask></defs><g id="Button:mask-group">
<mask id="mask1_1_1253" style="mask-type:alpha" maskUnits="userSpaceOnUse" x="367" y="33" width="40" height="40">
<g id="SVG_2">
<path id="Vector_2" d="M377 33H407V63L397 73H367V43L377 33Z" fill="black"/>
</g>
</mask>
<g mask="url(#mask1_1_1253)">
<g id="Button">
<rect x="0.5" y="0.5" width="39" height="39" fill="#15171E"/>
<rect x="0.5" y="0.5" width="39" height="39" stroke="#2A2D3A"/>
<g id="Container_6">
<path id="Icon_2" d="M17.708,28.3333l-0.333,-2.6666c-0.181,-0.0695 -0.351,-0.1528 -0.51,-0.25c-0.16,-0.0973 -0.316,-0.2014 -0.469,-0.3125l-2.479,1.0416l-2.292,-3.9583l2.146,-1.625c-0.014,-0.0972 -0.021,-0.191 -0.021,-0.2812c0,-0.0903 0,-0.1841 0,-0.2813c0,-0.0972 0,-0.191 0,-0.2812c0,-0.0903 0.007,-0.1841 0.021,-0.2813l-2.146,-1.625l2.292,-3.9583l2.479,1.0416c0.153,-0.1111 0.312,-0.2152 0.479,-0.3125c0.167,-0.0972 0.333,-0.1805 0.5,-0.25l0.333,-2.6666h4.584l0.333,2.6666c0.181,0.0695 0.351,0.1528 0.51,0.25c0.16,0.0973 0.316,0.2014 0.469,0.3125l2.479,-1.0416l2.292,3.9583l-2.146,1.625c0.014,0.0972 0.021,0.191 0.021,0.2813c0,0.0902 0,0.184 0,0.2812c0,0.0972 0,0.191 0,0.2813c0,0.0902 -0.014,0.184 -0.042,0.2812l2.146,1.625l-2.292,3.9583l-2.458,-1.0416c-0.153,0.1111 -0.312,0.2152 -0.479,0.3125c-0.167,0.0972 -0.333,0.1805 -0.5,0.25l-0.333,2.6666zM19.167,26.6667h1.645l0.292,-2.2084c0.431,-0.1111 0.83,-0.2743 1.198,-0.4895c0.368,-0.2153 0.705,-0.4757 1.01,-0.7813l2.063,0.8542l0.813,-1.4167l-1.792,-1.3542c0.069,-0.1944 0.118,-0.3993 0.146,-0.6145c0.027,-0.2153 0.041,-0.4341 0.041,-0.6563c0,-0.2222 -0.014,-0.441 -0.041,-0.6562c-0.028,-0.2153 -0.077,-0.4202 -0.146,-0.6146l1.792,-1.3542l-0.813,-1.4167l-2.063,0.875c-0.305,-0.3194 -0.642,-0.5868 -1.01,-0.802c-0.368,-0.2153 -0.767,-0.3785 -1.198,-0.4896l-0.271,-2.2084h-1.645l-0.292,2.2084c-0.431,0.1111 -0.83,0.2743 -1.198,0.4896c-0.368,0.2152 -0.705,0.4756 -1.01,0.7812l-2.063,-0.8542l-0.813,1.4167l1.792,1.3333c-0.069,0.2084 -0.118,0.4167 -0.146,0.625c-0.027,0.2084 -0.041,0.4306 -0.041,0.6667c0,0.2222 0.014,0.4375 0.041,0.6458c0.028,0.2084 0.077,0.4167 0.146,0.625l-1.792,1.3542l0.813,1.4167l2.063,-0.875c0.305,0.3194 0.642,0.5868 1.01,0.8021c0.368,0.2152 0.767,0.3784 1.198,0.4895zM20.042,22.9167c0.805,0 1.493,-0.2848 2.062,-0.8542c0.57,-0.5694 0.854,-1.2569 0.854,-2.0625c0,-0.8056 -0.284,-1.4931 -0.854,-2.0625c-0.569,-0.5694 -1.257,-0.8542 -2.062,-0.8542c-0.82,0 -1.511,0.2848 -2.073,0.8542c-0.563,0.5694 -0.844,1.2569 -0.844,2.0625c0,0.8056 0.281,1.4931 0.844,2.0625c0.562,0.5694 1.253,0.8542 2.073,0.8542z" fill="#94A3B8"/>
</g>
</g>
</g>
</g></svg>