<svg viewBox="0 0 314 29" fill="none" xmlns="http://www.w3.org/2000/svg" id="8107e8d1" x="0" y="0"><g id="F1 Pit Stop Log Interface" data-node-id="1:1468"><g id="Background+Border+Shadow" data-node-id="1:1469"><g id="Main" data-node-id="1:1491"><g id="Section - Input Group 2: Fuel Load" data-node-id="1:1519"><g id="Background+Border_2" data-node-id="1:1530"><g id="Slider" data-node-id="1:1532"><g id="Input_2" data-node-id="1:1533">
<g id="Background+Border_3" data-node-id="1:1534">
<rect x="0.5" y="10" width="313" height="7" rx="1.5" fill="#282F39"/>
<rect x="0.5" y="10" width="313" height="7" rx="1.5" stroke="#3B4554"/>
<g id="Background+Border+Shadow_2" data-node-id="1:1535" filter="url(#filter3_d_1_1468)">
<rect x="134.19" y="0.5" width="16" height="28" rx="2" fill="white"/>
<rect x="135.19" y="1.5" width="14" height="26" rx="1" stroke="#0D69F2" stroke-width="2"/>
</g>
</g>
</g><g id="Tick marks visual representation" data-node-id="1:1547" opacity="0.3">
<rect id="Background_5" data-node-id="1:1548" x="4" y="23" width="1" height="4" fill="white"/>
<rect id="Background_6" data-node-id="1:1549" x="34.5" y="23" width="1" height="4" fill="white"/>
<rect id="Background_7" data-node-id="1:1550" x="65" y="23" width="1" height="4" fill="white"/>
<rect id="Background_8" data-node-id="1:1551" x="95.5" y="23" width="1" height="4" fill="white"/>
<rect id="Background_9" data-node-id="1:1552" x="126" y="23" width="1" height="4" fill="white"/>
<rect id="Background_10" data-node-id="1:1553" x="156.5" y="23" width="1" height="4" fill="white"/>
<rect id="Background_11" data-node-id="1:1554" x="187" y="23" width="1" height="4" fill="white"/>
<rect id="Background_12" data-node-id="1:1555" x="217.5" y="23" width="1" height="4" fill="white"/>
<rect id="Background_13" data-node-id="1:1556" x="248" y="23" width="1" height="4" fill="white"/>
<rect id="Background_14" data-node-id="1:1557" x="278.5" y="23" width="1" height="4" fill="white"/>
<rect id="Background_15" data-node-id="1:1558" x="309" y="23" width="1" height="4" fill="white"/>
</g></g></g></g></g></g></g><defs><filter id="filter3_d_1_1468" x="129.19" y="-4.5" width="26" height="38" filterUnits="userSpaceOnUse" color-interpolation-filters="sRGB">
<feFlood flood-opacity="0" result="BackgroundImageFix"/>
<feColorMatrix in="SourceAlpha" type="matrix" values="0 0 0 0 0 0 0 0 0 0 0 0 0 0 0 0 0 0 127 0" result="hardAlpha"/>
<feOffset/>
<feGaussianBlur stdDeviation="2.5"/>
<feComposite in2="hardAlpha" operator="out"/>
<feColorMatrix type="matrix" values="0 0 0 0 0.0509804 0 0 0 0 0.411765 0 0 0 0 0.94902 0 0 0 0.8 0"/>
<feBlend mode="normal" in2="BackgroundImageFix" result="effect1_dropShadow_1_1468"/>
<feBlend mode="normal" in="SourceGraphic" in2="effect1_dropShadow_1_1468" result="shape"/>
</filter></defs></svg>