<svg viewBox="0 0 18 18" fill="none" xmlns="http://www.w3.org/2000/svg" x="0" y="0"><path id="Icon_5" d="M3.9999,14h2v-5h-2zM11.9999,14h2v-10h-2zM7.9999,14h2v-3h-2zM7.9999,9h2v-2h-2zM1.9999,18c-0.55,0 -1.021,-0.196 -1.412,-0.587c-0.392,-0.392 -0.588,-0.863 -0.588,-1.413v-14c0,-0.55 0.196,-1.021 0.588,-1.413c0.391,-0.391 0.862,-0.587 1.412,-0.587h14c0.55,0 1.021,0.196 1.413,0.587c0.391,0.392 0.587,0.863 0.587,1.413v14c0,0.55 -0.196,1.021 -0.587,1.413c-0.392,0.391 -0.863,0.587 -1.413,0.587zM1.9999,16h14v-14h-14zM1.9999,2v14z" fill="currentColor"/></svg>