<svg viewBox="0 0 15 17.5" fill="none" xmlns="http://www.w3.org/2000/svg" x="0" y="0"><path id="Icon_4" d="M4.9998,1.6667v-1.6667h5v1.6667zM6.6668,10.8333h1.667v-5h-1.667zM7.4998,17.5c-1.028,0 -1.996,-0.1979 -2.906,-0.5938c-0.91,-0.3958 -1.705,-0.934 -2.385,-1.6145c-0.681,-0.6806 -1.219,-1.4757 -1.615,-2.3855c-0.396,-0.9097 -0.594,-1.8784 -0.594,-2.9062c0,-1.0278 0.198,-1.9965 0.594,-2.9062c0.396,-0.9098 0.934,-1.7049 1.615,-2.3855c0.68,-0.6805 1.475,-1.2187 2.385,-1.6145c0.91,-0.3959 1.878,-0.5938 2.906,-0.5938c0.861,0 1.688,0.1389 2.479,0.4167c0.792,0.2777 1.535,0.6805 2.23,1.2083l1.166,-1.1667l1.167,1.1667l-1.167,1.1667c0.528,0.6944 0.931,1.4375 1.209,2.2291c0.277,0.7917 0.416,1.6181 0.416,2.4792c0,1.0278 -0.198,1.9965 -0.594,2.9062c-0.395,0.9098 -0.934,1.7049 -1.614,2.3855c-0.681,0.6805 -1.476,1.2187 -2.386,1.6145c-0.909,0.3959 -1.878,0.5938 -2.906,0.5938zM7.4998,15.8333c1.611,0 2.986,-0.5694 4.125,-1.7083c1.139,-1.1389 1.709,-2.5139 1.709,-4.125c0,-1.6111 -0.57,-2.9861 -1.709,-4.125c-1.139,-1.1389 -2.514,-1.7083 -4.125,-1.7083c-1.611,0 -2.986,0.5694 -4.125,1.7083c-1.139,1.1389 -1.708,2.5139 -1.708,4.125c0,1.6111 0.569,2.9861 1.708,4.125c1.139,1.1389 2.514,1.7083 4.125,1.7083z" fill="currentColor"/></svg>